<?xml version="1.0" encoding="UTF-8"?>
<svg id="Warstwa_2" data-name="Warstwa 2" xmlns="http://www.w3.org/2000/svg" viewBox="0 0 64 64">
  <defs>
    <style>
      .cls-1 {
        fill: #fff;
      }

      .cls-2 {
        fill: #00569d;
      }
    </style>
  </defs>
  <g id="Warstwa_4" data-name="Warstwa 4">
    <rect class="cls-1" width="64" height="64"/>
    <path class="cls-2" d="M28.71,45.24s-10.97-3.79-10.35-15.19c.63-11.53,9.91-12.59,12.39-12.39-.09,1.47-1.08,3.28-2.12,4.29,0,0,3.58-3.13,7.95-3.93,4.37-.81,6.33.08,6.33.08-2.54-3.96-9.66-9.12-13.61-9.84,1.11.75,2.81,2.1,2.86,3.9,0,0-9.65-.91-15.9,6.33-6.26,7.24-6.37,22.03,12.45,26.74Z"/>
    <path class="cls-2" d="M24.55,27.3s8.37-8.03,18.22-2.29c9.97,5.81,6.68,14.56,5.38,16.68-1.03-.78-2.28-2.32-2.85-3.85,0,0,1.15,4.61-.12,8.87-1.27,4.25-2.96,5.6-2.96,5.6,4.68-.46,12.51-4.44,14.95-7.63-.84.69-3.07,1.51-4.78.77,0,0,5.2-8.17,1.61-17.04-3.59-8.87-16.69-15.72-29.46-1.11Z"/>
    <path class="cls-2" d="M43.51,33.56s2.01,11.43-8.26,16.4c-10.38,5.03-15.82-2.57-16.85-4.83.93-.57,3.37-.65,4.78-.22,0,0-4.47-1.62-7.29-5.04-2.82-3.43-3-5.58-3-5.58-2.23,4.14-3.29,12.86-1.99,16.67.12-1.34.42-3.32,2.02-4.39,0,0,3.89,8.87,13.25,10.84,9.36,1.96,22.35-5.1,17.34-23.84Z"/>
  </g>
</svg>